<svg width="610" height="200" viewBox="0 0 610 200" fill="none" xmlns="http://www.w3.org/2000/svg">
<g clip-path="url(#clip0)">
<rect width="610" height="200" fill="#F4F7FF"/>
<path opacity="0.8" fill-rule="evenodd" clip-rule="evenodd" d="M725.089 -108.522C724.192 -109.156 722.722 -109.16 721.823 -108.532L386.347 96.7357C385.447 97.3639 385.444 98.4 386.338 99.0378L551.033 202.279L715.728 297.495C715.541 297.362 763.637 297.705 764.527 297.057L1069.84 115.926C1070.73 115.278 1070.72 114.228 1069.83 113.596L725.089 -108.522Z" fill="url(#paint0_linear)"/>
<g filter="url(#filter0_d)">
<path fill-rule="evenodd" clip-rule="evenodd" d="M-20.5054 45.121C-20.154 45.4035 -19.5448 45.5035 -19.1517 45.3435L116.448 -9.85588C116.841 -10.0159 116.876 -10.3792 116.526 -10.6629L-2.14283 -106.62C-2.06962 -106.561 -21.9963 -109.909 -22.3861 -109.741L-155.057 -63.8703C-155.447 -63.7024 -155.479 -63.334 -155.127 -63.0518L-20.5054 45.121Z" fill="url(#paint1_linear)"/>
</g>
<path d="M543.377 29.2233H442.894C436.231 29.2233 429.841 31.6635 425.13 36.0072C420.418 40.3509 417.771 46.2422 417.771 52.3851V284.838C417.771 290.981 420.418 296.872 425.13 301.216C429.841 305.56 436.231 308 442.894 308H543.379C550.044 308.002 556.436 305.562 561.151 301.219C565.865 296.875 568.515 290.983 568.517 284.838V52.3851C568.515 46.2401 565.864 40.3477 561.15 36.0041C556.435 31.6605 550.042 29.2213 543.377 29.2233Z" fill="#072654"/>
<path d="M561.839 52.0795V285.878C561.839 290.208 559.973 294.36 556.653 297.422C553.332 300.483 548.828 302.203 544.132 302.203H442.156C437.46 302.203 432.956 300.483 429.636 297.422C426.315 294.36 424.449 290.208 424.449 285.878V52.0918C424.449 49.9462 424.908 47.8217 425.798 45.8395C426.689 43.8573 427.994 42.0563 429.64 40.5392C431.286 39.0221 433.239 37.8187 435.389 36.9978C437.539 36.1768 439.844 35.7543 442.171 35.7545H459.672C460.611 35.7544 461.516 36.0786 462.208 36.6631C462.901 37.2475 463.331 38.0499 463.413 38.9121L463.599 40.849C463.761 42.5448 464.607 44.1229 465.969 45.2725C467.331 46.422 469.11 47.0597 470.957 47.0597H515.337C517.182 47.0576 518.959 46.419 520.319 45.2696C521.678 44.1201 522.522 42.5432 522.684 40.849L522.87 38.9121C522.952 38.0499 523.382 37.2475 524.074 36.6631C524.767 36.0786 525.672 35.7544 526.61 35.7545H544.126C546.452 35.7538 548.755 36.1755 550.904 36.9957C553.053 37.8158 555.006 39.0181 556.651 40.5341C558.296 42.0501 559.6 43.85 560.491 45.831C561.381 47.812 561.839 49.9352 561.839 52.0795Z" fill="#F4F7FF"/>
<rect opacity="0.42" x="505.718" y="64.3821" width="47.99" height="5.1948" rx="1.7316" fill="#3F67E4"/>
<g filter="url(#filter1_f)">
<path d="M436.177 102.565C435.142 102.565 434.319 102.286 433.705 101.729L433.993 101.143C434.322 101.422 434.656 101.62 434.997 101.738C435.338 101.856 435.734 101.914 436.186 101.914C436.719 101.914 437.128 101.812 437.413 101.608C437.704 101.397 437.85 101.103 437.85 100.725C437.85 100.502 437.778 100.322 437.636 100.186C437.5 100.044 437.317 99.9321 437.088 99.8515C436.865 99.771 436.564 99.6874 436.186 99.6006C435.678 99.4891 435.26 99.3683 434.932 99.2382C434.603 99.1081 434.337 98.9223 434.133 98.6807C433.928 98.4329 433.826 98.1107 433.826 97.7142C433.826 97.3363 433.925 97.0049 434.123 96.7199C434.322 96.4288 434.6 96.2026 434.96 96.0416C435.325 95.8805 435.75 95.8 436.233 95.8C436.691 95.8 437.119 95.8712 437.515 96.0137C437.912 96.1562 438.246 96.3637 438.519 96.6363L438.221 97.2217C437.912 96.9553 437.596 96.7602 437.274 96.6363C436.958 96.5124 436.611 96.4504 436.233 96.4504C435.719 96.4504 435.316 96.562 435.025 96.785C434.734 97.0018 434.588 97.3023 434.588 97.6864C434.588 98.0209 434.715 98.2718 434.969 98.4391C435.223 98.6063 435.613 98.7519 436.14 98.8758C436.71 99.0121 437.156 99.1391 437.478 99.2568C437.806 99.3683 438.079 99.5418 438.296 99.7772C438.513 100.006 438.621 100.313 438.621 100.697C438.621 101.069 438.522 101.397 438.324 101.682C438.125 101.961 437.84 102.178 437.469 102.333C437.103 102.488 436.673 102.565 436.177 102.565ZM443.89 97.8165V102.491H443.147V101.645C443.011 101.936 442.803 102.162 442.524 102.323C442.252 102.478 441.933 102.556 441.567 102.556C441.152 102.556 440.787 102.457 440.471 102.258C440.161 102.06 439.919 101.781 439.746 101.422C439.579 101.056 439.495 100.632 439.495 100.149C439.495 99.6657 439.582 99.2413 439.755 98.8758C439.929 98.5041 440.17 98.216 440.48 98.0116C440.796 97.8072 441.158 97.7049 441.567 97.7049C441.933 97.7049 442.252 97.7855 442.524 97.9465C442.797 98.1076 443.004 98.3337 443.147 98.6249V97.8165H443.89ZM441.716 101.933C442.174 101.933 442.527 101.778 442.775 101.468C443.023 101.152 443.147 100.706 443.147 100.13C443.147 99.5542 443.023 99.1112 442.775 98.8015C442.527 98.4917 442.174 98.3368 441.716 98.3368C441.257 98.3368 440.898 98.4979 440.638 98.82C440.384 99.136 440.257 99.5789 440.257 100.149C440.257 100.719 440.384 101.159 440.638 101.468C440.892 101.778 441.251 101.933 441.716 101.933ZM449.453 97.8165L447.269 102.918C447.04 103.451 446.752 103.841 446.405 104.089C446.058 104.337 445.631 104.507 445.123 104.6L444.965 104.015C445.404 103.915 445.736 103.782 445.959 103.615C446.188 103.454 446.377 103.203 446.526 102.862L446.712 102.444L444.732 97.8165H445.522L447.102 101.673L448.7 97.8165H449.453ZM455.038 97.7049C456.159 97.7049 456.72 98.3213 456.72 99.5542V102.491H455.967V99.5913C455.967 99.1577 455.88 98.8417 455.707 98.6435C455.533 98.4391 455.261 98.3368 454.889 98.3368C454.455 98.3368 454.108 98.47 453.848 98.7364C453.588 99.0028 453.458 99.3621 453.458 99.8144V102.491H452.705V95.6513H453.458V98.5784C453.607 98.2935 453.817 98.0766 454.09 97.928C454.369 97.7793 454.685 97.7049 455.038 97.7049ZM462.053 100.13H458.624C458.63 100.725 458.767 101.174 459.033 101.478C459.306 101.781 459.699 101.933 460.213 101.933C460.758 101.933 461.26 101.75 461.719 101.385L461.97 101.933C461.765 102.125 461.502 102.277 461.18 102.388C460.864 102.5 460.538 102.556 460.204 102.556C459.473 102.556 458.9 102.342 458.485 101.914C458.07 101.481 457.862 100.889 457.862 100.14C457.862 99.6626 457.955 99.2413 458.141 98.8758C458.327 98.5041 458.587 98.216 458.922 98.0116C459.256 97.8072 459.637 97.7049 460.065 97.7049C460.684 97.7049 461.17 97.9094 461.523 98.3182C461.877 98.7209 462.053 99.2785 462.053 99.9909V100.13ZM460.074 98.2904C459.684 98.2904 459.365 98.4081 459.117 98.6435C458.875 98.8789 458.72 99.2103 458.652 99.6378H461.375C461.338 99.1979 461.208 98.8634 460.985 98.6342C460.768 98.405 460.464 98.2904 460.074 98.2904ZM463.196 95.6513H463.948V102.491H463.196V95.6513ZM465.41 95.6513H466.163V102.491H465.41V95.6513ZM469.557 102.556C469.117 102.556 468.73 102.457 468.395 102.258C468.061 102.06 467.801 101.778 467.615 101.413C467.435 101.047 467.345 100.62 467.345 100.13C467.345 99.6409 467.435 99.2134 467.615 98.8479C467.801 98.4824 468.061 98.2005 468.395 98.0023C468.73 97.8041 469.117 97.7049 469.557 97.7049C469.997 97.7049 470.384 97.8041 470.719 98.0023C471.053 98.2005 471.31 98.4824 471.49 98.8479C471.676 99.2134 471.769 99.6409 471.769 100.13C471.769 100.62 471.676 101.047 471.49 101.413C471.31 101.778 471.053 102.06 470.719 102.258C470.384 102.457 469.997 102.556 469.557 102.556ZM469.557 101.933C470.022 101.933 470.378 101.781 470.626 101.478C470.873 101.168 470.997 100.719 470.997 100.13C470.997 99.5604 470.87 99.1205 470.616 98.8108C470.362 98.4948 470.009 98.3368 469.557 98.3368C469.099 98.3368 468.742 98.4948 468.488 98.8108C468.234 99.1205 468.107 99.5604 468.107 100.13C468.107 100.719 468.231 101.168 468.479 101.478C468.733 101.781 469.092 101.933 469.557 101.933ZM476.368 98.4112V100.967C476.368 101.314 476.44 101.558 476.582 101.701C476.725 101.837 476.926 101.905 477.186 101.905C477.36 101.905 477.527 101.877 477.688 101.822V102.463C477.496 102.525 477.279 102.556 477.038 102.556C476.592 102.556 476.242 102.432 475.988 102.184C475.74 101.93 475.616 101.558 475.616 101.069V98.4112H474.705V97.8165H475.616V96.6177L476.368 96.3482V97.8165H477.707V98.4112H476.368ZM480.547 102.556C480.107 102.556 479.719 102.457 479.385 102.258C479.05 102.06 478.79 101.778 478.604 101.413C478.425 101.047 478.335 100.62 478.335 100.13C478.335 99.6409 478.425 99.2134 478.604 98.8479C478.79 98.4824 479.05 98.2005 479.385 98.0023C479.719 97.8041 480.107 97.7049 480.547 97.7049C480.986 97.7049 481.374 97.8041 481.708 98.0023C482.043 98.2005 482.3 98.4824 482.479 98.8479C482.665 99.2134 482.758 99.6409 482.758 100.13C482.758 100.62 482.665 101.047 482.479 101.413C482.3 101.778 482.043 102.06 481.708 102.258C481.374 102.457 480.986 102.556 480.547 102.556ZM480.547 101.933C481.011 101.933 481.367 101.781 481.615 101.478C481.863 101.168 481.987 100.719 481.987 100.13C481.987 99.5604 481.86 99.1205 481.606 98.8108C481.352 98.4948 480.999 98.3368 480.547 98.3368C480.088 98.3368 479.732 98.4948 479.478 98.8108C479.224 99.1205 479.097 99.5604 479.097 100.13C479.097 100.719 479.221 101.168 479.469 101.478C479.723 101.781 480.082 101.933 480.547 101.933ZM487.358 98.4112V100.967C487.358 101.314 487.429 101.558 487.572 101.701C487.714 101.837 487.916 101.905 488.176 101.905C488.349 101.905 488.517 101.877 488.678 101.822V102.463C488.486 102.525 488.269 102.556 488.027 102.556C487.581 102.556 487.231 102.432 486.977 102.184C486.729 101.93 486.605 101.558 486.605 101.069V98.4112H485.695V97.8165H486.605V96.6177L487.358 96.3482V97.8165H488.696V98.4112H487.358ZM491.936 97.7049C493.057 97.7049 493.618 98.3213 493.618 99.5542V102.491H492.865V99.5913C492.865 99.1577 492.778 98.8417 492.605 98.6435C492.431 98.4391 492.159 98.3368 491.787 98.3368C491.353 98.3368 491.006 98.47 490.746 98.7364C490.486 99.0028 490.356 99.3621 490.356 99.8144V102.491H489.603V95.6513H490.356V98.5784C490.505 98.2935 490.715 98.0766 490.988 97.928C491.267 97.7793 491.583 97.7049 491.936 97.7049ZM498.951 100.13H495.522C495.528 100.725 495.665 101.174 495.931 101.478C496.204 101.781 496.597 101.933 497.111 101.933C497.656 101.933 498.158 101.75 498.617 101.385L498.868 101.933C498.663 102.125 498.4 102.277 498.078 102.388C497.762 102.5 497.436 102.556 497.102 102.556C496.371 102.556 495.798 102.342 495.383 101.914C494.968 101.481 494.76 100.889 494.76 100.14C494.76 99.6626 494.853 99.2413 495.039 98.8758C495.225 98.5041 495.485 98.216 495.82 98.0116C496.154 97.8072 496.535 97.7049 496.963 97.7049C497.582 97.7049 498.068 97.9094 498.421 98.3182C498.775 98.7209 498.951 99.2785 498.951 99.9909V100.13ZM496.972 98.2904C496.582 98.2904 496.263 98.4081 496.015 98.6435C495.773 98.8789 495.618 99.2103 495.55 99.6378H498.273C498.236 99.1979 498.106 98.8634 497.883 98.6342C497.666 98.405 497.362 98.2904 496.972 98.2904ZM507.702 97.7049C508.736 97.7049 509.254 98.3213 509.254 99.5542V102.491H508.501V99.5913C508.501 99.1515 508.424 98.8324 508.269 98.6342C508.12 98.436 507.875 98.3368 507.535 98.3368C507.138 98.3368 506.828 98.47 506.605 98.7364C506.382 99.0028 506.271 99.3652 506.271 99.8236V102.491H505.518V99.5913C505.518 99.1577 505.441 98.8417 505.286 98.6435C505.131 98.4391 504.883 98.3368 504.542 98.3368C504.146 98.3368 503.833 98.47 503.604 98.7364C503.381 99.0028 503.269 99.3652 503.269 99.8236V102.491H502.517V99.1267C502.517 98.6435 502.492 98.2067 502.442 97.8165H503.158L503.232 98.6342C503.362 98.3368 503.554 98.1076 503.808 97.9465C504.068 97.7855 504.369 97.7049 504.71 97.7049C505.081 97.7049 505.385 97.7793 505.62 97.928C505.856 98.0766 506.029 98.3059 506.141 98.6156C506.283 98.3368 506.491 98.1169 506.763 97.9558C507.042 97.7886 507.355 97.7049 507.702 97.7049ZM512.617 102.556C512.177 102.556 511.79 102.457 511.455 102.258C511.121 102.06 510.86 101.778 510.675 101.413C510.495 101.047 510.405 100.62 510.405 100.13C510.405 99.6409 510.495 99.2134 510.675 98.8479C510.86 98.4824 511.121 98.2005 511.455 98.0023C511.79 97.8041 512.177 97.7049 512.617 97.7049C513.057 97.7049 513.444 97.8041 513.778 98.0023C514.113 98.2005 514.37 98.4824 514.55 98.8479C514.735 99.2134 514.828 99.6409 514.828 100.13C514.828 100.62 514.735 101.047 514.55 101.413C514.37 101.778 514.113 102.06 513.778 102.258C513.444 102.457 513.057 102.556 512.617 102.556ZM512.617 101.933C513.081 101.933 513.438 101.781 513.685 101.478C513.933 101.168 514.057 100.719 514.057 100.13C514.057 99.5604 513.93 99.1205 513.676 98.8108C513.422 98.4948 513.069 98.3368 512.617 98.3368C512.158 98.3368 511.802 98.4948 511.548 98.8108C511.294 99.1205 511.167 99.5604 511.167 100.13C511.167 100.719 511.291 101.168 511.539 101.478C511.793 101.781 512.152 101.933 512.617 101.933ZM517.581 102.556C516.795 102.556 516.172 102.354 515.714 101.952L515.965 101.394C516.219 101.592 516.476 101.735 516.736 101.822C516.996 101.908 517.287 101.952 517.609 101.952C517.962 101.952 518.229 101.893 518.408 101.775C518.594 101.651 518.687 101.475 518.687 101.245C518.687 101.06 518.625 100.911 518.501 100.799C518.378 100.688 518.173 100.601 517.888 100.539L517.098 100.353C516.708 100.267 516.404 100.112 516.188 99.8887C515.977 99.6657 515.872 99.3993 515.872 99.0895C515.872 98.6807 516.036 98.3492 516.364 98.0952C516.692 97.835 517.126 97.7049 517.665 97.7049C517.993 97.7049 518.303 97.7576 518.594 97.8629C518.885 97.9682 519.13 98.12 519.328 98.3182L519.078 98.8665C518.638 98.501 518.167 98.3182 517.665 98.3182C517.331 98.3182 517.07 98.3833 516.884 98.5134C516.705 98.6373 516.615 98.8139 516.615 99.0431C516.615 99.2351 516.671 99.3869 516.782 99.4984C516.9 99.6099 517.086 99.6966 517.34 99.7586L518.13 99.9537C518.563 100.053 518.885 100.208 519.096 100.418C519.307 100.623 519.412 100.892 519.412 101.227C519.412 101.629 519.248 101.952 518.92 102.193C518.591 102.435 518.145 102.556 517.581 102.556ZM521.57 98.4112V100.967C521.57 101.314 521.641 101.558 521.784 101.701C521.926 101.837 522.127 101.905 522.388 101.905C522.561 101.905 522.728 101.877 522.889 101.822V102.463C522.697 102.525 522.481 102.556 522.239 102.556C521.793 102.556 521.443 102.432 521.189 102.184C520.941 101.93 520.817 101.558 520.817 101.069V98.4112H519.907V97.8165H520.817V96.6177L521.57 96.3482V97.8165H522.908V98.4112H521.57ZM438.101 109.816V114.491H437.357V113.645C437.221 113.936 437.013 114.162 436.735 114.323C436.462 114.478 436.143 114.556 435.777 114.556C435.362 114.556 434.997 114.457 434.681 114.258C434.371 114.06 434.13 113.781 433.956 113.422C433.789 113.056 433.705 112.632 433.705 112.149C433.705 111.666 433.792 111.241 433.965 110.876C434.139 110.504 434.38 110.216 434.69 110.012C435.006 109.807 435.369 109.705 435.777 109.705C436.143 109.705 436.462 109.785 436.735 109.947C437.007 110.108 437.215 110.334 437.357 110.625V109.816H438.101ZM435.926 113.933C436.385 113.933 436.738 113.778 436.985 113.468C437.233 113.152 437.357 112.706 437.357 112.13C437.357 111.554 437.233 111.111 436.985 110.801C436.738 110.492 436.385 110.337 435.926 110.337C435.468 110.337 435.108 110.498 434.848 110.82C434.594 111.136 434.467 111.579 434.467 112.149C434.467 112.719 434.594 113.159 434.848 113.468C435.102 113.778 435.461 113.933 435.926 113.933ZM443.672 107.651V114.491H442.929V113.645C442.793 113.936 442.585 114.162 442.306 114.323C442.034 114.478 441.715 114.556 441.349 114.556C440.94 114.556 440.578 114.453 440.262 114.249C439.952 114.045 439.711 113.76 439.537 113.394C439.364 113.022 439.277 112.595 439.277 112.112C439.277 111.628 439.361 111.207 439.528 110.848C439.701 110.482 439.946 110.201 440.262 110.002C440.578 109.804 440.94 109.705 441.349 109.705C441.715 109.705 442.034 109.785 442.306 109.947C442.579 110.101 442.783 110.321 442.92 110.606V107.651H443.672ZM441.498 113.933C441.956 113.933 442.31 113.778 442.557 113.468C442.805 113.152 442.929 112.706 442.929 112.13C442.929 111.56 442.805 111.121 442.557 110.811C442.31 110.495 441.956 110.337 441.498 110.337C441.04 110.337 440.68 110.492 440.42 110.801C440.166 111.111 440.039 111.548 440.039 112.112C440.039 112.688 440.166 113.137 440.42 113.459C440.68 113.775 441.04 113.933 441.498 113.933ZM449.235 109.826L447.219 114.491H446.503L444.514 109.826H445.304L446.884 113.673L448.482 109.826H449.235ZM454.127 109.816V114.491H453.383V113.645C453.247 113.936 453.039 114.162 452.761 114.323C452.488 114.478 452.169 114.556 451.803 114.556C451.388 114.556 451.023 114.457 450.707 114.258C450.397 114.06 450.156 113.781 449.982 113.422C449.815 113.056 449.731 112.632 449.731 112.149C449.731 111.666 449.818 111.241 449.991 110.876C450.165 110.504 450.406 110.216 450.716 110.012C451.032 109.807 451.395 109.705 451.803 109.705C452.169 109.705 452.488 109.785 452.761 109.947C453.033 110.108 453.241 110.334 453.383 110.625V109.816H454.127ZM451.952 113.933C452.411 113.933 452.764 113.778 453.012 113.468C453.259 113.152 453.383 112.706 453.383 112.13C453.383 111.554 453.259 111.111 453.012 110.801C452.764 110.492 452.411 110.337 451.952 110.337C451.494 110.337 451.134 110.498 450.874 110.82C450.62 111.136 450.493 111.579 450.493 112.149C450.493 112.719 450.62 113.159 450.874 113.468C451.128 113.778 451.488 113.933 451.952 113.933ZM457.914 109.705C459.036 109.705 459.596 110.321 459.596 111.554V114.491H458.844V111.591C458.844 111.158 458.757 110.842 458.583 110.643C458.41 110.439 458.137 110.337 457.766 110.337C457.332 110.337 456.985 110.47 456.725 110.736C456.465 111.003 456.335 111.362 456.335 111.814V114.491H455.582V111.127C455.582 110.643 455.557 110.207 455.508 109.816H456.223L456.297 110.653C456.44 110.349 456.654 110.117 456.939 109.956C457.224 109.789 457.549 109.705 457.914 109.705ZM462.978 114.556C462.526 114.556 462.13 114.457 461.789 114.258C461.454 114.06 461.194 113.781 461.008 113.422C460.829 113.056 460.739 112.632 460.739 112.149C460.739 111.666 460.832 111.241 461.018 110.876C461.204 110.504 461.467 110.216 461.808 110.012C462.154 109.807 462.557 109.705 463.016 109.705C463.332 109.705 463.635 109.761 463.926 109.872C464.224 109.978 464.468 110.126 464.66 110.318L464.409 110.876C464.174 110.69 463.945 110.554 463.722 110.467C463.505 110.38 463.282 110.337 463.053 110.337C462.576 110.337 462.201 110.498 461.928 110.82C461.656 111.136 461.519 111.579 461.519 112.149C461.519 112.713 461.653 113.152 461.919 113.468C462.192 113.778 462.57 113.933 463.053 113.933C463.282 113.933 463.505 113.89 463.722 113.803C463.945 113.716 464.174 113.58 464.409 113.394L464.66 113.952C464.462 114.137 464.211 114.286 463.908 114.398C463.61 114.503 463.301 114.556 462.978 114.556ZM469.531 112.13H466.102C466.108 112.725 466.244 113.174 466.511 113.478C466.783 113.781 467.177 113.933 467.691 113.933C468.236 113.933 468.738 113.75 469.196 113.385L469.447 113.933C469.243 114.125 468.979 114.277 468.657 114.388C468.341 114.5 468.016 114.556 467.682 114.556C466.951 114.556 466.377 114.342 465.962 113.914C465.547 113.481 465.34 112.889 465.34 112.14C465.34 111.663 465.433 111.241 465.619 110.876C465.804 110.504 466.065 110.216 466.399 110.012C466.734 109.807 467.115 109.705 467.542 109.705C468.162 109.705 468.648 109.909 469.001 110.318C469.354 110.721 469.531 111.278 469.531 111.991V112.13ZM467.551 110.29C467.161 110.29 466.842 110.408 466.594 110.643C466.353 110.879 466.198 111.21 466.13 111.638H468.852C468.815 111.198 468.685 110.863 468.462 110.634C468.245 110.405 467.942 110.29 467.551 110.29ZM474.79 107.651V114.491H474.046V113.645C473.91 113.936 473.703 114.162 473.424 114.323C473.151 114.478 472.832 114.556 472.467 114.556C472.058 114.556 471.695 114.453 471.379 114.249C471.07 114.045 470.828 113.76 470.655 113.394C470.481 113.022 470.394 112.595 470.394 112.112C470.394 111.628 470.478 111.207 470.645 110.848C470.819 110.482 471.064 110.201 471.379 110.002C471.695 109.804 472.058 109.705 472.467 109.705C472.832 109.705 473.151 109.785 473.424 109.947C473.696 110.101 473.901 110.321 474.037 110.606V107.651H474.79ZM472.615 113.933C473.074 113.933 473.427 113.778 473.675 113.468C473.923 113.152 474.046 112.706 474.046 112.13C474.046 111.56 473.923 111.121 473.675 110.811C473.427 110.495 473.074 110.337 472.615 110.337C472.157 110.337 471.798 110.492 471.537 110.801C471.283 111.111 471.156 111.548 471.156 112.112C471.156 112.688 471.283 113.137 471.537 113.459C471.798 113.775 472.157 113.933 472.615 113.933ZM481.001 109.705C481.409 109.705 481.772 109.804 482.088 110.002C482.404 110.201 482.648 110.482 482.822 110.848C482.995 111.207 483.082 111.628 483.082 112.112C483.082 112.595 482.995 113.022 482.822 113.394C482.648 113.76 482.404 114.045 482.088 114.249C481.772 114.453 481.409 114.556 481.001 114.556C480.635 114.556 480.316 114.475 480.043 114.314C479.771 114.153 479.563 113.924 479.421 113.626V114.491H478.668V107.651H479.421V110.643C479.557 110.34 479.762 110.108 480.034 109.947C480.313 109.785 480.635 109.705 481.001 109.705ZM480.861 113.933C481.313 113.933 481.667 113.775 481.921 113.459C482.175 113.137 482.302 112.688 482.302 112.112C482.302 111.548 482.175 111.111 481.921 110.801C481.673 110.492 481.32 110.337 480.861 110.337C480.397 110.337 480.04 110.492 479.793 110.801C479.545 111.111 479.421 111.554 479.421 112.13C479.421 112.706 479.545 113.152 479.793 113.468C480.04 113.778 480.397 113.933 480.861 113.933ZM488.152 109.816V114.491H487.418V113.682C487.269 113.967 487.062 114.184 486.795 114.333C486.529 114.481 486.229 114.556 485.894 114.556C485.343 114.556 484.925 114.401 484.64 114.091C484.355 113.781 484.212 113.323 484.212 112.716V109.816H484.965V112.697C484.965 113.118 485.052 113.428 485.225 113.626C485.398 113.825 485.662 113.924 486.015 113.924C486.43 113.924 486.765 113.791 487.019 113.524C487.272 113.252 487.399 112.895 487.399 112.456V109.816H488.152ZM490.607 110.411V112.967C490.607 113.314 490.678 113.558 490.821 113.701C490.963 113.837 491.164 113.905 491.425 113.905C491.598 113.905 491.765 113.877 491.926 113.822V114.463C491.734 114.525 491.517 114.556 491.276 114.556C490.83 114.556 490.48 114.432 490.226 114.184C489.978 113.93 489.854 113.558 489.854 113.069V110.411H488.943V109.816H489.854V108.618L490.607 108.348V109.816H491.945V110.411H490.607ZM493.883 110.411V112.967C493.883 113.314 493.954 113.558 494.097 113.701C494.239 113.837 494.44 113.905 494.701 113.905C494.874 113.905 495.041 113.877 495.202 113.822V114.463C495.01 114.525 494.793 114.556 494.552 114.556C494.106 114.556 493.756 114.432 493.502 114.184C493.254 113.93 493.13 113.558 493.13 113.069V110.411H492.219V109.816H493.13V108.618L493.883 108.348V109.816H495.221V110.411H493.883ZM498.061 114.556C497.621 114.556 497.234 114.457 496.899 114.258C496.565 114.06 496.305 113.778 496.119 113.413C495.939 113.047 495.849 112.62 495.849 112.13C495.849 111.641 495.939 111.213 496.119 110.848C496.305 110.482 496.565 110.201 496.899 110.002C497.234 109.804 497.621 109.705 498.061 109.705C498.501 109.705 498.888 109.804 499.222 110.002C499.557 110.201 499.814 110.482 499.994 110.848C500.18 111.213 500.272 111.641 500.272 112.13C500.272 112.62 500.18 113.047 499.994 113.413C499.814 113.778 499.557 114.06 499.222 114.258C498.888 114.457 498.501 114.556 498.061 114.556ZM498.061 113.933C498.525 113.933 498.882 113.781 499.129 113.478C499.377 113.168 499.501 112.719 499.501 112.13C499.501 111.56 499.374 111.121 499.12 110.811C498.866 110.495 498.513 110.337 498.061 110.337C497.602 110.337 497.246 110.495 496.992 110.811C496.738 111.121 496.611 111.56 496.611 112.13C496.611 112.719 496.735 113.168 496.983 113.478C497.237 113.781 497.596 113.933 498.061 113.933ZM503.778 109.705C504.9 109.705 505.46 110.321 505.46 111.554V114.491H504.707V111.591C504.707 111.158 504.621 110.842 504.447 110.643C504.274 110.439 504.001 110.337 503.63 110.337C503.196 110.337 502.849 110.47 502.589 110.736C502.329 111.003 502.198 111.362 502.198 111.814V114.491H501.446V111.127C501.446 110.643 501.421 110.207 501.371 109.816H502.087L502.161 110.653C502.304 110.349 502.518 110.117 502.802 109.956C503.087 109.789 503.413 109.705 503.778 109.705ZM506.761 107.874H507.699L507.458 112.753H506.993L506.761 107.874ZM507.709 113.533V114.491H506.751V113.533H507.709Z" fill="#072654"/>
</g>
<g filter="url(#filter2_d)">
<g clip-path="url(#clip1)">
<rect x="396.905" y="131.836" width="192.609" height="45.0548" fill="#072654"/>
<g filter="url(#filter3_d)">
<path d="M400.285 132.962H445.73C446.101 132.962 446.371 133.314 446.274 133.672L435.008 175.348C434.942 175.594 434.719 175.764 434.464 175.764H400.285C399.04 175.764 398.032 174.756 398.032 173.512V135.215C398.032 133.971 399.04 132.962 400.285 132.962Z" fill="#1E40A0"/>
</g>
<path d="M416.139 150.393L415.027 154.413L421.39 150.371L417.229 165.622L421.455 165.626L427.601 143.099L416.139 150.393Z" fill="#F4F7FF"/>
<path d="M409.808 159.215L408.169 165.626H416.281C416.281 165.626 419.599 152.587 419.601 152.584C419.597 152.585 409.808 159.215 409.808 159.215Z" fill="#F4F7FF"/>
<path opacity="0.95" d="M485.229 143.366C486.018 143.366 486.696 143.497 487.263 143.76C487.831 144.023 488.262 144.391 488.556 144.864C488.851 145.337 488.998 145.878 488.998 146.488C488.998 147.613 488.641 148.491 487.926 149.122C487.221 149.742 486.212 150.052 484.898 150.052H482.186L481.823 154.594H479.363L480.246 143.366H485.229ZM484.661 148.176C485.324 148.176 485.823 148.044 486.16 147.781C486.506 147.508 486.68 147.124 486.68 146.63C486.68 145.716 486.091 145.258 484.914 145.258H482.564L482.328 148.176H484.661ZM498.164 146.599L497.533 154.594H495.184L495.263 153.569C495 153.937 494.658 154.22 494.238 154.42C493.817 154.62 493.355 154.72 492.85 154.72C492.177 154.72 491.583 154.567 491.068 154.262C490.553 153.947 490.153 153.5 489.87 152.922C489.586 152.344 489.444 151.66 489.444 150.872C489.444 149.999 489.602 149.227 489.917 148.554C490.243 147.871 490.695 147.34 491.273 146.961C491.851 146.583 492.514 146.394 493.26 146.394C493.817 146.394 494.306 146.504 494.727 146.725C495.147 146.935 495.483 147.245 495.736 147.655L495.815 146.599H498.164ZM493.638 152.922C494.217 152.922 494.674 152.696 495.01 152.244C495.347 151.792 495.515 151.187 495.515 150.431C495.515 149.695 495.363 149.143 495.058 148.775C494.753 148.396 494.311 148.207 493.733 148.207C493.134 148.207 492.661 148.438 492.314 148.901C491.977 149.353 491.809 149.968 491.809 150.746C491.809 151.45 491.967 151.992 492.282 152.37C492.598 152.738 493.05 152.922 493.638 152.922ZM508.002 146.599L503.603 155.019C503.067 156.05 502.436 156.801 501.71 157.274C500.996 157.747 500.139 158.052 499.14 158.189L498.73 156.36C499.476 156.202 500.044 155.997 500.433 155.745C500.822 155.503 501.143 155.156 501.395 154.704L501.679 154.168L498.982 146.599H501.395L503.114 151.771L505.605 146.599H508.002ZM523.331 143.366L522.448 154.594H520.603L515.588 147.497L515.036 154.594H512.734L513.617 143.366H515.43L520.477 150.462L521.029 143.366H523.331ZM528.626 154.72C527.774 154.72 527.033 154.557 526.402 154.231C525.782 153.905 525.304 153.448 524.967 152.859C524.631 152.26 524.463 151.566 524.463 150.777C524.463 149.884 524.636 149.106 524.983 148.444C525.34 147.781 525.84 147.277 526.481 146.93C527.122 146.572 527.869 146.394 528.72 146.394C529.561 146.394 530.292 146.557 530.912 146.882C531.543 147.208 532.026 147.671 532.363 148.27C532.699 148.859 532.868 149.547 532.868 150.336C532.868 151.24 532.689 152.023 532.331 152.685C531.984 153.337 531.49 153.842 530.849 154.199C530.218 154.546 529.477 154.72 528.626 154.72ZM528.61 152.922C529.251 152.922 529.724 152.68 530.029 152.197C530.344 151.703 530.502 151.061 530.502 150.273C530.502 149.589 530.355 149.074 530.061 148.727C529.766 148.381 529.33 148.207 528.752 148.207C528.1 148.207 527.616 148.449 527.301 148.932C526.986 149.416 526.828 150.047 526.828 150.825C526.828 152.223 527.422 152.922 528.61 152.922ZM547.608 146.599L543.744 154.594H541.742L540.275 149.973L538.194 154.594H536.175L533.573 146.599H535.954L537.484 151.739L539.77 146.599H541.41L542.909 151.802L545.242 146.599H547.608Z" fill="#F4F7FF"/>
<path opacity="0.6" d="M470.04 167.95C469.542 167.95 469.076 167.887 468.644 167.76C468.211 167.628 467.83 167.436 467.499 167.184L467.95 166.337C468.28 166.577 468.617 166.754 468.959 166.868C469.301 166.976 469.674 167.031 470.076 167.031C470.521 167.031 470.86 166.955 471.095 166.805C471.329 166.655 471.446 166.442 471.446 166.165C471.446 165.985 471.383 165.838 471.257 165.724C471.137 165.604 470.98 165.508 470.788 165.436C470.602 165.357 470.347 165.273 470.022 165.183C469.578 165.051 469.214 164.925 468.932 164.805C468.656 164.679 468.415 164.495 468.211 164.255C468.013 164.009 467.914 163.69 467.914 163.3C467.914 162.916 468.019 162.579 468.229 162.291C468.439 161.996 468.737 161.771 469.121 161.615C469.506 161.453 469.956 161.372 470.473 161.372C470.929 161.372 471.362 161.441 471.77 161.579C472.179 161.711 472.512 161.897 472.771 162.138L472.32 162.985C472.044 162.762 471.743 162.591 471.419 162.471C471.101 162.351 470.776 162.291 470.446 162.291C470.007 162.291 469.668 162.372 469.428 162.534C469.187 162.696 469.067 162.922 469.067 163.21C469.067 163.402 469.13 163.561 469.256 163.687C469.388 163.814 469.551 163.916 469.743 163.994C469.941 164.072 470.208 164.159 470.545 164.255C470.983 164.381 471.338 164.504 471.608 164.625C471.885 164.745 472.119 164.919 472.311 165.147C472.509 165.375 472.608 165.676 472.608 166.048C472.608 166.643 472.38 167.109 471.924 167.445C471.473 167.781 470.845 167.95 470.04 167.95ZM474.479 165.652V165.706C474.479 166.15 474.587 166.49 474.803 166.724C475.019 166.958 475.335 167.076 475.749 167.076C476.272 167.076 476.74 166.916 477.155 166.598L477.407 167.364C477.215 167.544 476.963 167.685 476.65 167.787C476.338 167.89 476.017 167.941 475.686 167.941C475.224 167.941 474.818 167.851 474.47 167.67C474.121 167.484 473.854 167.223 473.668 166.886C473.481 166.55 473.388 166.159 473.388 165.715C473.388 165.228 473.484 164.796 473.677 164.417C473.875 164.033 474.145 163.736 474.488 163.525C474.836 163.309 475.23 163.201 475.668 163.201C476.275 163.201 476.752 163.378 477.101 163.732C477.455 164.081 477.633 164.574 477.633 165.21C477.633 165.348 477.624 165.496 477.605 165.652H474.479ZM475.722 164.003C475.079 164.003 474.686 164.351 474.542 165.048H476.686C476.692 164.718 476.608 164.462 476.434 164.282C476.26 164.096 476.023 164.003 475.722 164.003ZM480.605 167.941C480.142 167.941 479.74 167.851 479.397 167.67C479.055 167.484 478.791 167.226 478.604 166.895C478.418 166.559 478.325 166.168 478.325 165.724C478.325 165.207 478.424 164.76 478.622 164.381C478.827 164.003 479.112 163.711 479.478 163.507C479.851 163.303 480.283 163.201 480.776 163.201C481.479 163.201 482.056 163.393 482.506 163.778L482.119 164.571C481.692 164.246 481.26 164.084 480.821 164.084C480.401 164.084 480.073 164.228 479.839 164.516C479.605 164.799 479.487 165.198 479.487 165.715C479.487 166.141 479.593 166.472 479.803 166.706C480.013 166.94 480.307 167.058 480.686 167.058C480.92 167.058 481.139 167.018 481.344 166.94C481.548 166.862 481.755 166.742 481.965 166.58L482.218 167.364C482.02 167.544 481.776 167.685 481.488 167.787C481.206 167.89 480.911 167.941 480.605 167.941ZM487.434 163.318L487.074 167.869H485.984L486.038 167.22C485.882 167.448 485.674 167.625 485.416 167.751C485.164 167.878 484.881 167.941 484.569 167.941C484.07 167.941 483.689 167.805 483.425 167.535C483.166 167.259 483.037 166.859 483.037 166.337C483.037 166.217 483.04 166.123 483.046 166.057L483.262 163.318H484.389L484.173 165.985L484.163 166.156C484.163 166.751 484.437 167.049 484.983 167.049C485.308 167.049 485.566 166.943 485.758 166.733C485.957 166.517 486.071 166.223 486.101 165.85L486.308 163.318H487.434ZM491.108 163.21C491.288 163.21 491.442 163.234 491.568 163.282L491.478 164.3C491.31 164.228 491.114 164.192 490.892 164.192C490.502 164.192 490.198 164.303 489.982 164.525C489.766 164.742 489.645 165.036 489.621 165.409L489.423 167.869H488.297L488.558 164.607C488.582 164.198 488.594 163.889 488.594 163.678C488.594 163.516 488.591 163.396 488.585 163.318H489.639L489.658 164.012C489.79 163.76 489.985 163.564 490.243 163.426C490.508 163.282 490.796 163.21 491.108 163.21ZM492.756 165.652V165.706C492.756 166.15 492.864 166.49 493.08 166.724C493.296 166.958 493.612 167.076 494.026 167.076C494.549 167.076 495.018 166.916 495.432 166.598L495.684 167.364C495.492 167.544 495.24 167.685 494.927 167.787C494.615 167.89 494.294 167.941 493.963 167.941C493.501 167.941 493.095 167.851 492.747 167.67C492.398 167.484 492.131 167.223 491.945 166.886C491.759 166.55 491.665 166.159 491.665 165.715C491.665 165.228 491.762 164.796 491.954 164.417C492.152 164.033 492.422 163.736 492.765 163.525C493.113 163.309 493.507 163.201 493.945 163.201C494.552 163.201 495.03 163.378 495.378 163.732C495.732 164.081 495.91 164.574 495.91 165.21C495.91 165.348 495.901 165.496 495.883 165.652H492.756ZM493.999 164.003C493.357 164.003 492.963 164.351 492.819 165.048H494.963C494.969 164.718 494.885 164.462 494.711 164.282C494.537 164.096 494.3 164.003 493.999 164.003ZM501.558 161.236L501.027 167.869H499.918L499.972 167.229C499.822 167.451 499.621 167.625 499.369 167.751C499.116 167.878 498.84 167.941 498.54 167.941C498.161 167.941 497.825 167.854 497.53 167.679C497.236 167.499 497.008 167.244 496.845 166.913C496.683 166.583 496.602 166.195 496.602 165.751C496.602 165.252 496.692 164.811 496.872 164.426C497.053 164.036 497.305 163.736 497.629 163.525C497.96 163.309 498.338 163.201 498.765 163.201C499.095 163.201 499.384 163.267 499.63 163.399C499.882 163.531 500.077 163.723 500.216 163.976L500.432 161.236H501.558ZM498.9 167.067C499.272 167.067 499.567 166.922 499.783 166.634C499.999 166.346 500.107 165.955 500.107 165.463C500.107 165.012 500.008 164.67 499.81 164.435C499.612 164.195 499.329 164.075 498.963 164.075C498.579 164.075 498.275 164.219 498.053 164.507C497.837 164.796 497.729 165.189 497.729 165.688C497.729 166.126 497.831 166.466 498.035 166.706C498.239 166.946 498.527 167.067 498.9 167.067ZM507.582 163.201C507.967 163.201 508.306 163.291 508.601 163.471C508.895 163.645 509.123 163.901 509.286 164.237C509.448 164.568 509.529 164.955 509.529 165.4C509.529 165.898 509.439 166.34 509.259 166.724C509.078 167.109 508.823 167.409 508.493 167.625C508.168 167.835 507.793 167.941 507.366 167.941C507.03 167.941 506.735 167.872 506.483 167.733C506.231 167.589 506.036 167.391 505.897 167.139L505.843 167.869H504.726L505.258 161.236H506.375L506.159 163.904C506.309 163.681 506.507 163.51 506.753 163.39C507.006 163.264 507.282 163.201 507.582 163.201ZM507.168 167.067C507.552 167.067 507.853 166.925 508.069 166.643C508.285 166.355 508.393 165.958 508.393 165.454C508.393 165.015 508.291 164.676 508.087 164.435C507.889 164.195 507.607 164.075 507.24 164.075C506.862 164.075 506.561 164.222 506.339 164.516C506.123 164.805 506.015 165.195 506.015 165.688C506.015 166.138 506.114 166.481 506.312 166.715C506.51 166.949 506.796 167.067 507.168 167.067ZM514.911 163.318L512.388 168.175C512.1 168.74 511.761 169.151 511.37 169.409C510.986 169.668 510.52 169.839 509.973 169.923L509.784 169.049C510.211 168.959 510.535 168.839 510.757 168.689C510.986 168.544 511.178 168.328 511.334 168.04L511.514 167.706L509.964 163.318H511.109L512.19 166.562L513.776 163.318H514.911ZM521.646 165.057C521.814 165.111 521.955 165.207 522.07 165.345C522.184 165.478 522.28 165.667 522.358 165.913L522.971 167.869H521.745L521.096 165.733C521.036 165.535 520.931 165.397 520.781 165.318C520.631 165.24 520.43 165.201 520.177 165.201H519.06L518.853 167.869H517.699L518.195 161.453H521.042C521.703 161.453 522.214 161.609 522.574 161.921C522.941 162.234 523.124 162.66 523.124 163.201C523.124 163.693 523.001 164.099 522.754 164.417C522.508 164.736 522.139 164.949 521.646 165.057ZM520.763 164.3C521.604 164.3 522.024 163.955 522.024 163.264C522.024 162.657 521.655 162.354 520.916 162.354H519.276L519.123 164.3H520.763ZM528.64 163.318L528.279 167.869H527.171L527.225 167.238C527.069 167.46 526.865 167.634 526.612 167.76C526.366 167.881 526.096 167.941 525.801 167.941C525.417 167.941 525.078 167.854 524.783 167.679C524.495 167.499 524.27 167.244 524.107 166.913C523.945 166.577 523.864 166.186 523.864 165.742C523.864 165.243 523.954 164.802 524.134 164.417C524.315 164.033 524.567 163.736 524.891 163.525C525.216 163.309 525.591 163.201 526.018 163.201C526.354 163.201 526.645 163.27 526.892 163.408C527.144 163.546 527.339 163.742 527.477 163.994L527.532 163.318H528.64ZM526.153 167.067C526.525 167.067 526.82 166.922 527.036 166.634C527.252 166.346 527.36 165.955 527.36 165.463C527.36 165.012 527.261 164.67 527.063 164.435C526.865 164.195 526.582 164.075 526.216 164.075C525.831 164.075 525.531 164.219 525.315 164.507C525.099 164.796 524.99 165.192 524.99 165.697C524.99 166.135 525.09 166.475 525.288 166.715C525.492 166.949 525.78 167.067 526.153 167.067ZM533.489 164.084L530.768 167.021H533.363L533.291 167.869H529.335L529.398 167.085L532.11 164.165H529.686L529.749 163.318H533.552L533.489 164.084ZM536.334 167.941C535.871 167.941 535.469 167.851 535.126 167.67C534.784 167.484 534.52 167.223 534.333 166.886C534.147 166.55 534.054 166.156 534.054 165.706C534.054 165.201 534.15 164.76 534.342 164.381C534.541 164.003 534.817 163.711 535.171 163.507C535.526 163.303 535.937 163.201 536.406 163.201C536.862 163.201 537.262 163.294 537.604 163.48C537.947 163.666 538.208 163.928 538.388 164.264C538.574 164.601 538.668 164.991 538.668 165.436C538.668 165.946 538.571 166.391 538.379 166.769C538.187 167.148 537.914 167.439 537.559 167.643C537.211 167.841 536.802 167.941 536.334 167.941ZM536.334 167.067C536.73 167.067 537.031 166.916 537.235 166.616C537.445 166.31 537.55 165.904 537.55 165.4C537.55 164.973 537.451 164.646 537.253 164.417C537.061 164.189 536.781 164.075 536.415 164.075C536.012 164.075 535.706 164.228 535.496 164.534C535.285 164.835 535.18 165.234 535.18 165.733C535.18 166.622 535.565 167.067 536.334 167.067ZM542.27 163.21C542.45 163.21 542.604 163.234 542.73 163.282L542.64 164.3C542.471 164.228 542.276 164.192 542.054 164.192C541.663 164.192 541.36 164.303 541.144 164.525C540.928 164.742 540.807 165.036 540.783 165.409L540.585 167.869H539.459L539.72 164.607C539.744 164.198 539.756 163.889 539.756 163.678C539.756 163.516 539.753 163.396 539.747 163.318H540.801L540.819 164.012C540.952 163.76 541.147 163.564 541.405 163.426C541.669 163.282 541.958 163.21 542.27 163.21ZM545.844 163.201C546.222 163.201 546.559 163.291 546.853 163.471C547.147 163.645 547.376 163.901 547.538 164.237C547.7 164.568 547.781 164.955 547.781 165.4C547.781 165.898 547.691 166.34 547.511 166.724C547.331 167.109 547.075 167.409 546.745 167.625C546.421 167.835 546.045 167.941 545.619 167.941C545.288 167.941 545 167.875 544.754 167.742C544.507 167.604 544.312 167.412 544.168 167.166L543.952 169.815H542.834L543.249 164.607C543.273 164.36 543.285 164.075 543.285 163.751C543.285 163.558 543.282 163.414 543.276 163.318H544.33L544.348 164.012C544.492 163.76 544.697 163.561 544.961 163.417C545.225 163.273 545.52 163.201 545.844 163.201ZM545.429 167.067C545.814 167.067 546.111 166.925 546.321 166.643C546.538 166.355 546.646 165.958 546.646 165.454C546.646 165.009 546.544 164.67 546.34 164.435C546.141 164.195 545.859 164.075 545.492 164.075C545.114 164.075 544.817 164.222 544.6 164.516C544.384 164.805 544.276 165.195 544.276 165.688C544.276 166.138 544.375 166.481 544.573 166.715C544.772 166.949 545.057 167.067 545.429 167.067ZM553.288 163.318L552.928 167.869H551.819L551.873 167.238C551.717 167.46 551.513 167.634 551.261 167.76C551.014 167.881 550.744 167.941 550.45 167.941C550.065 167.941 549.726 167.854 549.431 167.679C549.143 167.499 548.918 167.244 548.756 166.913C548.593 166.577 548.512 166.186 548.512 165.742C548.512 165.243 548.602 164.802 548.783 164.417C548.963 164.033 549.215 163.736 549.539 163.525C549.864 163.309 550.239 163.201 550.666 163.201C551.002 163.201 551.294 163.27 551.54 163.408C551.792 163.546 551.987 163.742 552.126 163.994L552.18 163.318H553.288ZM550.801 167.067C551.173 167.067 551.468 166.922 551.684 166.634C551.9 166.346 552.008 165.955 552.008 165.463C552.008 165.012 551.909 164.67 551.711 164.435C551.513 164.195 551.231 164.075 550.864 164.075C550.48 164.075 550.179 164.219 549.963 164.507C549.747 164.796 549.639 165.192 549.639 165.697C549.639 166.135 549.738 166.475 549.936 166.715C550.14 166.949 550.429 167.067 550.801 167.067ZM558.831 163.318L556.308 168.175C556.02 168.74 555.68 169.151 555.29 169.409C554.905 169.668 554.44 169.839 553.893 169.923L553.704 169.049C554.13 168.959 554.455 168.839 554.677 168.689C554.905 168.544 555.097 168.328 555.254 168.04L555.434 167.706L553.884 163.318H555.028L556.11 166.562L557.696 163.318H558.831Z" fill="#F4F7FF"/>
</g>
</g>
<path d="M26.4 60.18C25.32 60.18 24.28 60.04 23.28 59.76C22.2933 59.4667 21.4733 59.06 20.82 58.54L21.82 56.3C23.1933 57.26 24.7267 57.74 26.42 57.74C27.3267 57.74 28.02 57.6 28.5 57.32C28.9933 57.0267 29.24 56.62 29.24 56.1C29.24 55.6467 29.0133 55.2933 28.56 55.04C28.12 54.7733 27.34 54.52 26.22 54.28C24.9667 54.0267 23.9667 53.72 23.22 53.36C22.4867 52.9867 21.9467 52.54 21.6 52.02C21.2667 51.4867 21.1 50.8267 21.1 50.04C21.1 49.1867 21.3333 48.42 21.8 47.74C22.28 47.06 22.9467 46.5333 23.8 46.16C24.6533 45.7733 25.64 45.58 26.76 45.58C27.7733 45.58 28.7467 45.7267 29.68 46.02C30.6133 46.3133 31.36 46.7133 31.92 47.22L30.92 49.46C29.6667 48.5 28.2867 48.02 26.78 48.02C25.98 48.02 25.34 48.18 24.86 48.5C24.38 48.82 24.14 49.2533 24.14 49.8C24.14 50.12 24.2267 50.3867 24.4 50.6C24.5867 50.8133 24.8933 51.0067 25.32 51.18C25.7467 51.34 26.3533 51.5 27.14 51.66C28.9667 52.06 30.28 52.58 31.08 53.22C31.8933 53.86 32.3 54.7333 32.3 55.84C32.3 57.1733 31.78 58.2333 30.74 59.02C29.7 59.7933 28.2533 60.18 26.4 60.18ZM43.4645 55.18H36.7845C36.8379 56.1267 37.0845 56.82 37.5245 57.26C37.9645 57.6867 38.6179 57.9 39.4845 57.9C40.0045 57.9 40.5245 57.8133 41.0445 57.64C41.5645 57.4667 42.0445 57.2133 42.4845 56.88L43.2845 58.92C42.8045 59.3067 42.2045 59.6133 41.4845 59.84C40.7779 60.0533 40.0645 60.16 39.3445 60.16C37.6379 60.16 36.2979 59.6933 35.3245 58.76C34.3512 57.8133 33.8645 56.5267 33.8645 54.9C33.8645 53.8733 34.0712 52.96 34.4845 52.16C34.9112 51.3467 35.5045 50.72 36.2645 50.28C37.0245 49.8267 37.8845 49.6 38.8445 49.6C40.2712 49.6 41.3979 50.0667 42.2245 51C43.0512 51.92 43.4645 53.1667 43.4645 54.74V55.18ZM38.9245 51.72C38.3512 51.72 37.8845 51.8867 37.5245 52.22C37.1779 52.5533 36.9512 53.04 36.8445 53.68H40.8645C40.7045 52.3733 40.0579 51.72 38.9245 51.72ZM45.3606 45.28H48.3806V60H45.3606V45.28ZM59.9489 55.18H53.2689C53.3222 56.1267 53.5689 56.82 54.0089 57.26C54.4489 57.6867 55.1022 57.9 55.9689 57.9C56.4889 57.9 57.0089 57.8133 57.5289 57.64C58.0489 57.4667 58.5289 57.2133 58.9689 56.88L59.7689 58.92C59.2889 59.3067 58.6889 59.6133 57.9689 59.84C57.2622 60.0533 56.5489 60.16 55.8289 60.16C54.1222 60.16 52.7822 59.6933 51.8089 58.76C50.8356 57.8133 50.3489 56.5267 50.3489 54.9C50.3489 53.8733 50.5556 52.96 50.9689 52.16C51.3956 51.3467 51.9889 50.72 52.7489 50.28C53.5089 49.8267 54.3689 49.6 55.3289 49.6C56.7556 49.6 57.8822 50.0667 58.7089 51C59.5356 51.92 59.9489 53.1667 59.9489 54.74V55.18ZM55.4089 51.72C54.8356 51.72 54.3689 51.8867 54.0089 52.22C53.6622 52.5533 53.4356 53.04 53.3289 53.68H57.3489C57.1889 52.3733 56.5422 51.72 55.4089 51.72ZM66.645 60.16C64.9917 60.16 63.6917 59.6933 62.745 58.76C61.8117 57.8267 61.345 56.5533 61.345 54.94C61.345 53.8867 61.5717 52.96 62.025 52.16C62.4783 51.3467 63.1117 50.72 63.925 50.28C64.7517 49.8267 65.705 49.6 66.785 49.6C67.5183 49.6 68.2317 49.7133 68.925 49.94C69.6183 50.1667 70.1717 50.4733 70.585 50.86L69.785 52.96C69.385 52.64 68.945 52.3933 68.465 52.22C67.985 52.0333 67.5183 51.94 67.065 51.94C66.2383 51.94 65.5917 52.1933 65.125 52.7C64.6717 53.1933 64.445 53.92 64.445 54.88C64.445 55.8533 64.6717 56.5933 65.125 57.1C65.5783 57.5933 66.225 57.84 67.065 57.84C67.5183 57.84 67.985 57.7533 68.465 57.58C68.945 57.3933 69.385 57.14 69.785 56.82L70.585 58.92C70.145 59.3067 69.5717 59.6133 68.865 59.84C68.1583 60.0533 67.4183 60.16 66.645 60.16ZM75.9184 52.12V56.06C75.9184 56.62 76.0651 57.0333 76.3584 57.3C76.6518 57.5533 77.0318 57.68 77.4984 57.68C77.7918 57.68 78.1251 57.6333 78.4984 57.54V59.88C78.0184 60.0667 77.4384 60.16 76.7584 60.16C75.5051 60.16 74.5451 59.8067 73.8784 59.1C73.2251 58.3933 72.8984 57.4 72.8984 56.12V52.12H70.9784V49.86H72.8984V47.48L75.9184 46.5V49.86H78.4984V52.12H75.9184ZM95.8331 49.86V60H92.8531V58.5C92.5465 59.02 92.1131 59.4267 91.5531 59.72C90.9931 60.0133 90.3598 60.16 89.6531 60.16C88.7731 60.16 87.9931 59.9467 87.3131 59.52C86.6465 59.0933 86.1198 58.4867 85.7331 57.7C85.3598 56.9 85.1731 55.98 85.1731 54.94C85.1731 53.9 85.3598 52.9733 85.7331 52.16C86.1198 51.3467 86.6531 50.72 87.3331 50.28C88.0131 49.8267 88.7865 49.6 89.6531 49.6C90.3598 49.6 90.9931 49.7533 91.5531 50.06C92.1131 50.3667 92.5465 50.78 92.8531 51.3V49.86H95.8331ZM90.5331 57.86C91.2798 57.86 91.8531 57.6067 92.2531 57.1C92.6531 56.5933 92.8531 55.86 92.8531 54.9C92.8531 53.94 92.6531 53.2067 92.2531 52.7C91.8531 52.18 91.2798 51.92 90.5331 51.92C89.7865 51.92 89.2065 52.1867 88.7931 52.72C88.3798 53.2533 88.1731 53.9933 88.1731 54.94C88.1731 55.8867 88.3731 56.6133 88.7731 57.12C89.1865 57.6133 89.7731 57.86 90.5331 57.86ZM104.096 45.76H110.556C112.129 45.76 113.349 46.14 114.216 46.9C115.096 47.66 115.536 48.6933 115.536 50C115.536 51.2933 115.096 52.3267 114.216 53.1C113.336 53.86 112.116 54.24 110.556 54.24H107.216V60H104.096V45.76ZM110.156 51.86C111.782 51.86 112.596 51.2467 112.596 50.02C112.596 48.78 111.782 48.16 110.156 48.16H107.216V51.86H110.156ZM127.161 49.86V60H124.181V58.5C123.875 59.02 123.441 59.4267 122.881 59.72C122.321 60.0133 121.688 60.16 120.981 60.16C120.101 60.16 119.321 59.9467 118.641 59.52C117.975 59.0933 117.448 58.4867 117.061 57.7C116.688 56.9 116.501 55.98 116.501 54.94C116.501 53.9 116.688 52.9733 117.061 52.16C117.448 51.3467 117.981 50.72 118.661 50.28C119.341 49.8267 120.115 49.6 120.981 49.6C121.688 49.6 122.321 49.7533 122.881 50.06C123.441 50.3667 123.875 50.78 124.181 51.3V49.86H127.161ZM121.861 57.86C122.608 57.86 123.181 57.6067 123.581 57.1C123.981 56.5933 124.181 55.86 124.181 54.9C124.181 53.94 123.981 53.2067 123.581 52.7C123.181 52.18 122.608 51.92 121.861 51.92C121.115 51.92 120.535 52.1867 120.121 52.72C119.708 53.2533 119.501 53.9933 119.501 54.94C119.501 55.8867 119.701 56.6133 120.101 57.12C120.515 57.6133 121.101 57.86 121.861 57.86ZM139.599 49.86L134.919 60.54C134.346 61.8333 133.619 62.78 132.739 63.38C131.872 63.9933 130.806 64.3867 129.539 64.56L128.839 62.24C129.772 62.04 130.472 61.7867 130.939 61.48C131.419 61.1733 131.792 60.7267 132.059 60.14L132.359 59.48L128.179 49.86H131.339L133.939 56.44L136.619 49.86H139.599ZM152.995 49.6C154.155 49.6 155.015 49.9533 155.575 50.66C156.148 51.3533 156.435 52.42 156.435 53.86V60H153.415V53.96C153.415 53.2533 153.302 52.7467 153.075 52.44C152.848 52.12 152.475 51.96 151.955 51.96C151.342 51.96 150.868 52.1733 150.535 52.6C150.202 53.0267 150.035 53.6267 150.035 54.4V60H147.015V53.96C147.015 53.2667 146.895 52.76 146.655 52.44C146.428 52.12 146.062 51.96 145.555 51.96C144.942 51.96 144.462 52.1733 144.115 52.6C143.782 53.0267 143.615 53.6267 143.615 54.4V60H140.595V52.76C140.595 51.68 140.542 50.7133 140.435 49.86H143.275L143.455 51.38C143.762 50.8067 144.188 50.3667 144.735 50.06C145.295 49.7533 145.935 49.6 146.655 49.6C148.162 49.6 149.162 50.2267 149.655 51.48C149.988 50.9067 150.448 50.4533 151.035 50.12C151.635 49.7733 152.288 49.6 152.995 49.6ZM167.918 55.18H161.238C161.291 56.1267 161.538 56.82 161.978 57.26C162.418 57.6867 163.071 57.9 163.938 57.9C164.458 57.9 164.978 57.8133 165.498 57.64C166.018 57.4667 166.498 57.2133 166.938 56.88L167.738 58.92C167.258 59.3067 166.658 59.6133 165.938 59.84C165.231 60.0533 164.518 60.16 163.798 60.16C162.091 60.16 160.751 59.6933 159.778 58.76C158.804 57.8133 158.318 56.5267 158.318 54.9C158.318 53.8733 158.524 52.96 158.938 52.16C159.364 51.3467 159.958 50.72 160.718 50.28C161.478 49.8267 162.338 49.6 163.298 49.6C164.724 49.6 165.851 50.0667 166.678 51C167.504 51.92 167.918 53.1667 167.918 54.74V55.18ZM163.378 51.72C162.804 51.72 162.338 51.8867 161.978 52.22C161.631 52.5533 161.404 53.04 161.298 53.68H165.318C165.158 52.3733 164.511 51.72 163.378 51.72ZM176.074 49.6C178.474 49.6 179.674 51.02 179.674 53.86V60H176.654V54C176.654 53.2933 176.52 52.78 176.254 52.46C176 52.1267 175.594 51.96 175.034 51.96C174.367 51.96 173.834 52.1733 173.434 52.6C173.034 53.0267 172.834 53.6 172.834 54.32V60H169.814V52.76C169.814 51.68 169.76 50.7133 169.654 49.86H172.494L172.694 51.46C173.054 50.86 173.52 50.4 174.094 50.08C174.68 49.76 175.34 49.6 176.074 49.6ZM185.879 52.12V56.06C185.879 56.62 186.026 57.0333 186.319 57.3C186.613 57.5533 186.993 57.68 187.459 57.68C187.753 57.68 188.086 57.6333 188.459 57.54V59.88C187.979 60.0667 187.399 60.16 186.719 60.16C185.466 60.16 184.506 59.8067 183.839 59.1C183.186 58.3933 182.859 57.4 182.859 56.12V52.12H180.939V49.86H182.859V47.48L185.879 46.5V49.86H188.459V52.12H185.879ZM204.974 52.64C205.801 52.88 206.441 53.3 206.894 53.9C207.347 54.5 207.574 55.2333 207.574 56.1C207.574 57.3 207.127 58.2533 206.234 58.96C205.341 59.6533 204.127 60 202.594 60H195.834V45.76H202.394C203.874 45.76 205.041 46.0933 205.894 46.76C206.761 47.4133 207.194 48.3133 207.194 49.46C207.194 50.2067 206.994 50.86 206.594 51.42C206.207 51.98 205.667 52.3867 204.974 52.64ZM198.874 51.56H201.874C202.674 51.56 203.267 51.4267 203.654 51.16C204.054 50.88 204.254 50.4533 204.254 49.88C204.254 49.2933 204.054 48.86 203.654 48.58C203.267 48.3 202.674 48.16 201.874 48.16H198.874V51.56ZM202.234 57.6C203.074 57.6 203.681 57.46 204.054 57.18C204.441 56.8867 204.634 56.4267 204.634 55.8C204.634 55.16 204.441 54.6933 204.054 54.4C203.681 54.1067 203.074 53.96 202.234 53.96H198.874V57.6H202.234ZM219.24 49.86V60H216.3V58.52C215.98 59.0533 215.56 59.46 215.04 59.74C214.52 60.02 213.933 60.16 213.28 60.16C212.013 60.16 211.067 59.8067 210.44 59.1C209.813 58.3933 209.5 57.3267 209.5 55.9V49.86H212.52V55.96C212.52 57.1867 213.047 57.8 214.1 57.8C214.727 57.8 215.233 57.5867 215.62 57.16C216.007 56.7333 216.2 56.1733 216.2 55.48V49.86H219.24ZM225.489 52.12V56.06C225.489 56.62 225.635 57.0333 225.929 57.3C226.222 57.5533 226.602 57.68 227.069 57.68C227.362 57.68 227.695 57.6333 228.069 57.54V59.88C227.589 60.0667 227.009 60.16 226.329 60.16C225.075 60.16 224.115 59.8067 223.449 59.1C222.795 58.3933 222.469 57.4 222.469 56.12V52.12H220.549V49.86H222.469V47.48L225.489 46.5V49.86H228.069V52.12H225.489ZM233.145 52.12V56.06C233.145 56.62 233.292 57.0333 233.585 57.3C233.878 57.5533 234.258 57.68 234.725 57.68C235.018 57.68 235.352 57.6333 235.725 57.54V59.88C235.245 60.0667 234.665 60.16 233.985 60.16C232.732 60.16 231.772 59.8067 231.105 59.1C230.452 58.3933 230.125 57.4 230.125 56.12V52.12H228.205V49.86H230.125V47.48L233.145 46.5V49.86H235.725V52.12H233.145ZM242.115 60.16C241.035 60.16 240.088 59.9467 239.275 59.52C238.475 59.0933 237.855 58.48 237.415 57.68C236.988 56.88 236.775 55.9467 236.775 54.88C236.775 53.8133 236.988 52.88 237.415 52.08C237.855 51.28 238.475 50.6667 239.275 50.24C240.088 49.8133 241.035 49.6 242.115 49.6C243.181 49.6 244.115 49.8133 244.915 50.24C245.715 50.6667 246.328 51.28 246.755 52.08C247.195 52.88 247.415 53.8133 247.415 54.88C247.415 55.9467 247.195 56.88 246.755 57.68C246.328 58.48 245.715 59.0933 244.915 59.52C244.115 59.9467 243.181 60.16 242.115 60.16ZM242.115 57.86C242.861 57.86 243.428 57.6133 243.815 57.12C244.215 56.6267 244.415 55.88 244.415 54.88C244.415 53.8933 244.215 53.1533 243.815 52.66C243.428 52.1533 242.861 51.9 242.115 51.9C241.355 51.9 240.775 52.1533 240.375 52.66C239.975 53.1533 239.775 53.8933 239.775 54.88C239.775 56.8667 240.555 57.86 242.115 57.86ZM255.605 49.6C258.005 49.6 259.205 51.02 259.205 53.86V60H256.185V54C256.185 53.2933 256.052 52.78 255.785 52.46C255.532 52.1267 255.125 51.96 254.565 51.96C253.898 51.96 253.365 52.1733 252.965 52.6C252.565 53.0267 252.365 53.6 252.365 54.32V60H249.345V52.76C249.345 51.68 249.292 50.7133 249.185 49.86H252.025L252.225 51.46C252.585 50.86 253.052 50.4 253.625 50.08C254.212 49.76 254.872 49.6 255.605 49.6Z" fill="#072654"/>
<path d="M24.3203 108.203V111.141C24.3203 111.714 24.3542 112.076 24.4219 112.227C24.4948 112.372 24.6198 112.49 24.7969 112.578C24.9792 112.667 25.3099 112.711 25.7891 112.711V113H20.4062V112.711C20.8958 112.711 21.2266 112.667 21.3984 112.578C21.5755 112.484 21.6979 112.365 21.7656 112.219C21.8385 112.073 21.875 111.714 21.875 111.141V104.266C21.875 103.693 21.8385 103.333 21.7656 103.188C21.6979 103.036 21.5755 102.917 21.3984 102.828C21.2214 102.74 20.8906 102.695 20.4062 102.695V102.406H25.0234C26.5443 102.406 27.6354 102.677 28.2969 103.219C28.9583 103.76 29.2891 104.438 29.2891 105.25C29.2891 105.938 29.0755 106.526 28.6484 107.016C28.2214 107.505 27.6328 107.839 26.8828 108.016C26.3776 108.141 25.5234 108.203 24.3203 108.203ZM24.3203 103.016V107.594C24.4922 107.604 24.6224 107.609 24.7109 107.609C25.3464 107.609 25.8359 107.422 26.1797 107.047C26.5234 106.667 26.6953 106.081 26.6953 105.289C26.6953 104.503 26.5234 103.927 26.1797 103.562C25.8359 103.198 25.3229 103.016 24.6406 103.016H24.3203ZM34.3516 111.922C33.4609 112.708 32.6615 113.102 31.9531 113.102C31.5365 113.102 31.1901 112.966 30.9141 112.695C30.638 112.419 30.5 112.076 30.5 111.664C30.5 111.107 30.7396 110.607 31.2188 110.164C31.6979 109.716 32.7422 109.122 34.3516 108.383V107.648C34.3516 107.096 34.3203 106.75 34.2578 106.609C34.2005 106.464 34.0885 106.339 33.9219 106.234C33.7552 106.125 33.5677 106.07 33.3594 106.07C33.0208 106.07 32.7422 106.146 32.5234 106.297C32.388 106.391 32.3203 106.5 32.3203 106.625C32.3203 106.734 32.3932 106.87 32.5391 107.031C32.737 107.255 32.8359 107.471 32.8359 107.68C32.8359 107.935 32.7396 108.154 32.5469 108.336C32.3594 108.513 32.112 108.602 31.8047 108.602C31.4766 108.602 31.2005 108.503 30.9766 108.305C30.7578 108.107 30.6484 107.875 30.6484 107.609C30.6484 107.234 30.7969 106.878 31.0938 106.539C31.3906 106.195 31.8047 105.932 32.3359 105.75C32.8672 105.568 33.4193 105.477 33.9922 105.477C34.6849 105.477 35.2318 105.625 35.6328 105.922C36.0391 106.214 36.3021 106.531 36.4219 106.875C36.4948 107.094 36.5312 107.596 36.5312 108.383V111.219C36.5312 111.552 36.5443 111.763 36.5703 111.852C36.5964 111.935 36.6354 111.997 36.6875 112.039C36.7396 112.081 36.7995 112.102 36.8672 112.102C37.0026 112.102 37.1406 112.005 37.2812 111.812L37.5156 112C37.2552 112.385 36.9844 112.667 36.7031 112.844C36.4271 113.016 36.112 113.102 35.7578 113.102C35.3411 113.102 35.0156 113.005 34.7812 112.812C34.5469 112.615 34.4036 112.318 34.3516 111.922ZM34.3516 111.352V108.906C33.7214 109.276 33.2526 109.672 32.9453 110.094C32.7422 110.375 32.6406 110.659 32.6406 110.945C32.6406 111.185 32.7266 111.396 32.8984 111.578C33.0286 111.719 33.2109 111.789 33.4453 111.789C33.7057 111.789 34.0078 111.643 34.3516 111.352ZM41.6719 113.297L39.3125 107.883C38.9583 107.065 38.6953 106.562 38.5234 106.375C38.3568 106.188 38.1536 106.057 37.9141 105.984V105.695H41.7969V105.984C41.5417 105.995 41.362 106.044 41.2578 106.133C41.1536 106.221 41.1016 106.328 41.1016 106.453C41.1016 106.651 41.2318 107.042 41.4922 107.625L42.7422 110.484L43.5938 108.273C43.901 107.487 44.0547 106.94 44.0547 106.633C44.0547 106.44 43.9896 106.286 43.8594 106.172C43.7344 106.057 43.5104 105.995 43.1875 105.984V105.695H45.6328V105.984C45.3932 106.01 45.1979 106.104 45.0469 106.266C44.8958 106.422 44.6432 106.961 44.2891 107.883L42.2031 113.297C41.6771 114.651 41.2865 115.484 41.0312 115.797C40.6719 116.234 40.2214 116.453 39.6797 116.453C39.2474 116.453 38.8958 116.328 38.625 116.078C38.3594 115.833 38.2266 115.536 38.2266 115.188C38.2266 114.885 38.3177 114.635 38.5 114.438C38.6875 114.24 38.9167 114.141 39.1875 114.141C39.4479 114.141 39.6562 114.224 39.8125 114.391C39.974 114.557 40.0573 114.815 40.0625 115.164C40.0677 115.362 40.0911 115.49 40.1328 115.547C40.1745 115.604 40.2344 115.633 40.3125 115.633C40.4375 115.633 40.5703 115.557 40.7109 115.406C40.9193 115.188 41.1641 114.688 41.4453 113.906L41.6719 113.297ZM49.3516 105.695V106.656C49.7526 106.219 50.1224 105.914 50.4609 105.742C50.8047 105.565 51.1797 105.477 51.5859 105.477C52.0547 105.477 52.4479 105.586 52.7656 105.805C53.0833 106.023 53.3281 106.357 53.5 106.805C53.9167 106.336 54.3151 105.997 54.6953 105.789C55.0807 105.581 55.4818 105.477 55.8984 105.477C56.4036 105.477 56.8047 105.594 57.1016 105.828C57.4036 106.057 57.612 106.352 57.7266 106.711C57.8464 107.065 57.9062 107.633 57.9062 108.414V111.406C57.9062 111.969 57.9557 112.318 58.0547 112.453C58.1589 112.589 58.3724 112.677 58.6953 112.719V113H54.9219V112.719C55.2188 112.693 55.4375 112.578 55.5781 112.375C55.6719 112.234 55.7188 111.911 55.7188 111.406V108.266C55.7188 107.615 55.6927 107.201 55.6406 107.023C55.5885 106.846 55.5052 106.716 55.3906 106.633C55.2812 106.544 55.151 106.5 55 106.5C54.776 106.5 54.5495 106.583 54.3203 106.75C54.0911 106.911 53.8594 107.156 53.625 107.484V111.406C53.625 111.932 53.6693 112.263 53.7578 112.398C53.8776 112.591 54.1068 112.698 54.4453 112.719V113H50.6641V112.719C50.8672 112.708 51.026 112.659 51.1406 112.57C51.2604 112.477 51.3385 112.367 51.375 112.242C51.4167 112.112 51.4375 111.833 51.4375 111.406V108.266C51.4375 107.604 51.4115 107.19 51.3594 107.023C51.3073 106.857 51.2188 106.727 51.0938 106.633C50.974 106.539 50.8438 106.492 50.7031 106.492C50.4948 106.492 50.3047 106.547 50.1328 106.656C49.888 106.818 49.6276 107.094 49.3516 107.484V111.406C49.3516 111.922 49.401 112.263 49.5 112.43C49.6042 112.591 49.8177 112.688 50.1406 112.719V113H46.375V112.719C46.6823 112.688 46.901 112.589 47.0312 112.422C47.1198 112.307 47.1641 111.969 47.1641 111.406V107.281C47.1641 106.729 47.112 106.385 47.0078 106.25C46.9089 106.115 46.6979 106.026 46.375 105.984V105.695H49.3516ZM65.8359 109.086H61.8281C61.875 110.055 62.1328 110.82 62.6016 111.383C62.9609 111.815 63.3932 112.031 63.8984 112.031C64.2109 112.031 64.4948 111.945 64.75 111.773C65.0052 111.596 65.2786 111.281 65.5703 110.828L65.8359 111C65.4401 111.807 65.0026 112.38 64.5234 112.719C64.0443 113.052 63.4896 113.219 62.8594 113.219C61.776 113.219 60.9557 112.802 60.3984 111.969C59.9505 111.297 59.7266 110.464 59.7266 109.469C59.7266 108.25 60.0547 107.281 60.7109 106.562C61.3724 105.839 62.1458 105.477 63.0312 105.477C63.7708 105.477 64.4115 105.781 64.9531 106.391C65.5 106.995 65.7943 107.893 65.8359 109.086ZM63.9141 108.562C63.9141 107.724 63.8672 107.148 63.7734 106.836C63.6849 106.523 63.5443 106.286 63.3516 106.125C63.2422 106.031 63.0964 105.984 62.9141 105.984C62.6432 105.984 62.4219 106.117 62.25 106.383C61.9427 106.846 61.7891 107.482 61.7891 108.289V108.562H63.9141ZM69.7422 105.695V106.641C70.1172 106.234 70.4766 105.94 70.8203 105.758C71.1641 105.57 71.5339 105.477 71.9297 105.477C72.4036 105.477 72.7969 105.609 73.1094 105.875C73.4219 106.135 73.6302 106.461 73.7344 106.852C73.8177 107.148 73.8594 107.719 73.8594 108.562V111.406C73.8594 111.969 73.9089 112.32 74.0078 112.461C74.112 112.596 74.3255 112.682 74.6484 112.719V113H70.9531V112.719C71.2292 112.682 71.4271 112.568 71.5469 112.375C71.6302 112.245 71.6719 111.922 71.6719 111.406V108.156C71.6719 107.557 71.6484 107.18 71.6016 107.023C71.5547 106.867 71.474 106.747 71.3594 106.664C71.25 106.576 71.1276 106.531 70.9922 106.531C70.5443 106.531 70.1276 106.852 69.7422 107.492V111.406C69.7422 111.953 69.7917 112.299 69.8906 112.445C69.9948 112.591 70.1849 112.682 70.4609 112.719V113H66.7656V112.719C67.0729 112.688 67.2917 112.589 67.4219 112.422C67.5104 112.307 67.5547 111.969 67.5547 111.406V107.281C67.5547 106.729 67.5026 106.385 67.3984 106.25C67.2995 106.115 67.0885 106.026 66.7656 105.984V105.695H69.7422ZM78.5625 103.023V105.695H80.2969V106.469H78.5625V110.977C78.5625 111.398 78.5807 111.672 78.6172 111.797C78.6589 111.917 78.7292 112.016 78.8281 112.094C78.9271 112.167 79.0182 112.203 79.1016 112.203C79.4401 112.203 79.7604 111.945 80.0625 111.43L80.2969 111.602C79.875 112.602 79.1901 113.102 78.2422 113.102C77.7786 113.102 77.3854 112.974 77.0625 112.719C76.7448 112.458 76.5417 112.169 76.4531 111.852C76.401 111.674 76.375 111.195 76.375 110.414V106.469H75.4219V106.195C76.0781 105.732 76.6354 105.245 77.0938 104.734C77.5573 104.224 77.9609 103.654 78.3047 103.023H78.5625ZM91.5703 107.383C92.5755 107.617 93.2812 107.901 93.6875 108.234C94.2708 108.708 94.5625 109.323 94.5625 110.078C94.5625 110.875 94.2422 111.534 93.6016 112.055C92.8151 112.685 91.6719 113 90.1719 113H84.7891V112.711C85.2786 112.711 85.6094 112.667 85.7812 112.578C85.9583 112.484 86.0807 112.365 86.1484 112.219C86.2214 112.073 86.2578 111.714 86.2578 111.141V104.266C86.2578 103.693 86.2214 103.333 86.1484 103.188C86.0807 103.036 85.9583 102.917 85.7812 102.828C85.6042 102.74 85.2734 102.695 84.7891 102.695V102.406H89.8672C91.0807 102.406 91.9401 102.516 92.4453 102.734C92.9505 102.948 93.349 103.271 93.6406 103.703C93.9323 104.13 94.0781 104.586 94.0781 105.07C94.0781 105.581 93.8932 106.036 93.5234 106.438C93.1536 106.833 92.5026 107.148 91.5703 107.383ZM88.7266 107.172C89.4661 107.172 90.0104 107.089 90.3594 106.922C90.7135 106.755 90.9844 106.521 91.1719 106.219C91.3594 105.917 91.4531 105.531 91.4531 105.062C91.4531 104.594 91.3594 104.211 91.1719 103.914C90.9896 103.612 90.7266 103.383 90.3828 103.227C90.0391 103.07 89.487 102.995 88.7266 103V107.172ZM88.7266 107.781V111.18L88.7188 111.57C88.7188 111.852 88.7891 112.065 88.9297 112.211C89.0755 112.352 89.2891 112.422 89.5703 112.422C89.987 112.422 90.3698 112.331 90.7188 112.148C91.0729 111.961 91.3438 111.693 91.5312 111.344C91.7188 110.99 91.8125 110.596 91.8125 110.164C91.8125 109.669 91.6979 109.227 91.4688 108.836C91.2396 108.44 90.9245 108.164 90.5234 108.008C90.1224 107.852 89.5234 107.776 88.7266 107.781ZM102.719 105.695V111.414C102.719 111.971 102.771 112.32 102.875 112.461C102.979 112.596 103.19 112.682 103.508 112.719V113H100.531V112.023C100.182 112.44 99.8333 112.745 99.4844 112.938C99.1354 113.125 98.7448 113.219 98.3125 113.219C97.901 113.219 97.5339 113.094 97.2109 112.844C96.8932 112.589 96.6797 112.292 96.5703 111.953C96.4609 111.615 96.4062 111.023 96.4062 110.18V107.281C96.4062 106.729 96.3542 106.385 96.25 106.25C96.151 106.115 95.9401 106.026 95.6172 105.984V105.695H98.5938V110.688C98.5938 111.208 98.6172 111.544 98.6641 111.695C98.7161 111.846 98.7943 111.961 98.8984 112.039C99.0078 112.117 99.1328 112.156 99.2734 112.156C99.4609 112.156 99.6302 112.107 99.7812 112.008C99.9896 111.872 100.24 111.599 100.531 111.188V107.281C100.531 106.729 100.479 106.385 100.375 106.25C100.276 106.115 100.065 106.026 99.7422 105.984V105.695H102.719ZM107.469 103.023V105.695H109.203V106.469H107.469V110.977C107.469 111.398 107.487 111.672 107.523 111.797C107.565 111.917 107.635 112.016 107.734 112.094C107.833 112.167 107.924 112.203 108.008 112.203C108.346 112.203 108.667 111.945 108.969 111.43L109.203 111.602C108.781 112.602 108.096 113.102 107.148 113.102C106.685 113.102 106.292 112.974 105.969 112.719C105.651 112.458 105.448 112.169 105.359 111.852C105.307 111.674 105.281 111.195 105.281 110.414V106.469H104.328V106.195C104.984 105.732 105.542 105.245 106 104.734C106.464 104.224 106.867 103.654 107.211 103.023H107.469ZM112.797 103.023V105.695H114.531V106.469H112.797V110.977C112.797 111.398 112.815 111.672 112.852 111.797C112.893 111.917 112.964 112.016 113.062 112.094C113.161 112.167 113.253 112.203 113.336 112.203C113.674 112.203 113.995 111.945 114.297 111.43L114.531 111.602C114.109 112.602 113.424 113.102 112.477 113.102C112.013 113.102 111.62 112.974 111.297 112.719C110.979 112.458 110.776 112.169 110.688 111.852C110.635 111.674 110.609 111.195 110.609 110.414V106.469H109.656V106.195C110.312 105.732 110.87 105.245 111.328 104.734C111.792 104.224 112.195 103.654 112.539 103.023H112.797ZM118.672 105.477C119.307 105.477 119.898 105.641 120.445 105.969C120.992 106.297 121.406 106.763 121.688 107.367C121.974 107.971 122.117 108.633 122.117 109.352C122.117 110.388 121.854 111.255 121.328 111.953C120.693 112.797 119.815 113.219 118.695 113.219C117.596 113.219 116.75 112.833 116.156 112.062C115.562 111.292 115.266 110.398 115.266 109.383C115.266 108.336 115.568 107.424 116.172 106.648C116.781 105.867 117.615 105.477 118.672 105.477ZM118.703 106.031C118.438 106.031 118.208 106.133 118.016 106.336C117.828 106.534 117.703 106.93 117.641 107.523C117.583 108.112 117.555 108.932 117.555 109.984C117.555 110.542 117.591 111.062 117.664 111.547C117.721 111.917 117.844 112.198 118.031 112.391C118.219 112.583 118.432 112.68 118.672 112.68C118.906 112.68 119.102 112.615 119.258 112.484C119.461 112.307 119.596 112.06 119.664 111.742C119.768 111.247 119.82 110.247 119.82 108.742C119.82 107.857 119.771 107.25 119.672 106.922C119.573 106.589 119.427 106.346 119.234 106.195C119.099 106.086 118.922 106.031 118.703 106.031ZM126.211 105.695V106.641C126.586 106.234 126.945 105.94 127.289 105.758C127.633 105.57 128.003 105.477 128.398 105.477C128.872 105.477 129.266 105.609 129.578 105.875C129.891 106.135 130.099 106.461 130.203 106.852C130.286 107.148 130.328 107.719 130.328 108.562V111.406C130.328 111.969 130.378 112.32 130.477 112.461C130.581 112.596 130.794 112.682 131.117 112.719V113H127.422V112.719C127.698 112.682 127.896 112.568 128.016 112.375C128.099 112.245 128.141 111.922 128.141 111.406V108.156C128.141 107.557 128.117 107.18 128.07 107.023C128.023 106.867 127.943 106.747 127.828 106.664C127.719 106.576 127.596 106.531 127.461 106.531C127.013 106.531 126.596 106.852 126.211 107.492V111.406C126.211 111.953 126.26 112.299 126.359 112.445C126.464 112.591 126.654 112.682 126.93 112.719V113H123.234V112.719C123.542 112.688 123.76 112.589 123.891 112.422C123.979 112.307 124.023 111.969 124.023 111.406V107.281C124.023 106.729 123.971 106.385 123.867 106.25C123.768 106.115 123.557 106.026 123.234 105.984V105.695H126.211Z" fill="#072654"/>
<rect x="20.5" y="133.5" width="140" height="28" rx="1.5" fill="white" stroke="#C4C4C4"/>
</g>
<defs>
<filter id="filter0_d" x="-174.935" y="-125.754" width="314.824" height="197.851" filterUnits="userSpaceOnUse" color-interpolation-filters="sRGB">
<feFlood flood-opacity="0" result="BackgroundImageFix"/>
<feColorMatrix in="SourceAlpha" type="matrix" values="0 0 0 0 0 0 0 0 0 0 0 0 0 0 0 0 0 0 127 0"/>
<feOffset dx="1.77852" dy="5.33557"/>
<feGaussianBlur stdDeviation="10.6711"/>
<feColorMatrix type="matrix" values="0 0 0 0 0.0862745 0 0 0 0 0.184314 0 0 0 0 0.337255 0 0 0 0.05 0"/>
<feBlend mode="normal" in2="BackgroundImageFix" result="effect1_dropShadow"/>
<feBlend mode="normal" in="SourceGraphic" in2="effect1_dropShadow" result="shape"/>
</filter>
<filter id="filter1_f" x="430.737" y="92.6828" width="95.1397" height="24.8413" filterUnits="userSpaceOnUse" color-interpolation-filters="sRGB">
<feFlood flood-opacity="0" result="BackgroundImageFix"/>
<feBlend mode="normal" in="SourceGraphic" in2="BackgroundImageFix" result="shape"/>
<feGaussianBlur stdDeviation="1.48423" result="effect1_foregroundBlur"/>
</filter>
<filter id="filter2_d" x="386.399" y="121.33" width="220.625" height="73.0707" filterUnits="userSpaceOnUse" color-interpolation-filters="sRGB">
<feFlood flood-opacity="0" result="BackgroundImageFix"/>
<feColorMatrix in="SourceAlpha" type="matrix" values="0 0 0 0 0 0 0 0 0 0 0 0 0 0 0 0 0 0 127 0"/>
<feOffset dx="3.50199" dy="3.50199"/>
<feGaussianBlur stdDeviation="7.00398"/>
<feColorMatrix type="matrix" values="0 0 0 0 0 0 0 0 0 0 0 0 0 0 0 0 0 0 0.25 0"/>
<feBlend mode="normal" in2="BackgroundImageFix" result="effect1_dropShadow"/>
<feBlend mode="normal" in="SourceGraphic" in2="effect1_dropShadow" result="shape"/>
</filter>
<filter id="filter3_d" x="395.779" y="128.457" width="57.2728" height="51.8131" filterUnits="userSpaceOnUse" color-interpolation-filters="sRGB">
<feFlood flood-opacity="0" result="BackgroundImageFix"/>
<feColorMatrix in="SourceAlpha" type="matrix" values="0 0 0 0 0 0 0 0 0 0 0 0 0 0 0 0 0 0 127 0"/>
<feOffset dx="2.25274"/>
<feGaussianBlur stdDeviation="2.25274"/>
<feColorMatrix type="matrix" values="0 0 0 0 0 0 0 0 0 0 0 0 0 0 0 0 0 0 0.15 0"/>
<feBlend mode="normal" in2="BackgroundImageFix" result="effect1_dropShadow"/>
<feBlend mode="normal" in="SourceGraphic" in2="effect1_dropShadow" result="shape"/>
</filter>
<linearGradient id="paint0_linear" x1="601.125" y1="252.283" x2="737.081" y2="-108.946" gradientUnits="userSpaceOnUse">
<stop stop-color="#009DE0"/>
<stop offset="1" stop-color="#6938F2"/>
</linearGradient>
<linearGradient id="paint1_linear" x1="-26.768" y1="44.2773" x2="4.7664" y2="-26.8785" gradientUnits="userSpaceOnUse">
<stop stop-color="#247AE7"/>
<stop offset="1" stop-color="#0F8FE3"/>
</linearGradient>
<clipPath id="clip0">
<rect width="610" height="200" fill="white"/>
</clipPath>
<clipPath id="clip1">
<rect x="396.905" y="131.836" width="192.609" height="45.0548" rx="3.37911" fill="white"/>
</clipPath>
</defs>
</svg>
